<svg version="1.1" preserveAspectRatio="none" xmlns="http://www.w3.org/2000/svg" width="500" height="500" viewBox="0 0 500 500"><rect width="100%" height="100%" fill="#000000" fill-opacity="1"/><svg viewBox="340.1541 181.8382 507.8876 337.9012" width="333" height="221.54724706805206" x="83.5px" y="139.2264px" xmlns="http://www.w3.org/2000/svg" xmlns:xlink="http://www.w3.org/1999/xlink" preserveAspectRatio="none"><defs></defs><style>.aDFQBjvS2colors-3 {fill:#050C84;fill-opacity:1;}.aDFQBjvS2colors-4 {fill:#2733A0;fill-opacity:1;}.aDFQBjvS2colors-5 {fill:#0B1AAE;fill-opacity:1;}.aDFQBjvS2colors-6 {fill:#B2A8A8;fill-opacity:1;}.aDFQBjvS2colors-7 {fill:#F1F1F1;fill-opacity:1;}.companyName {fill:#F1F1F1;fill-opacity:1;}.icon1 {fill:#C9CCF1;fill-opacity:1;}.icon2 {fill:#3342D2;fill-opacity:1;}.icon3 {fill:#5964B8;fill-opacity:1;}.icon3-str {stroke:#5964B8;stroke-opacity:1;}.text {fill:#F1F1F1;fill-opacity:1;}</style><g opacity="1" transform="rotate(0 340.1541 494.5394)">
<svg width="507.8876" height="25.2" x="340.1541" y="494.5394" version="1.1" preserveAspectRatio="none" viewBox="3.64 -30.28 771.4 38.28">
  <g transform="matrix(1 0 0 1 0 0)" class="text"><path id="id-6izo4zJp35" d="M14.88-21.40Q17.96-21.40 20.40-20.04Q22.84-18.68 24.22-16.24Q25.60-13.80 25.60-10.60L25.60-10.60Q25.60-7.40 24.22-4.94Q22.84-2.48 20.40-1.12Q17.96 0.24 14.88 0.24L14.88 0.24Q12.60 0.24 10.70-0.64Q8.80-1.52 7.48-3.20L7.48-3.20L7.48 7.76L3.64 7.76L3.64-21.20L7.32-21.20L7.32-17.84Q8.60-19.60 10.56-20.50Q12.52-21.40 14.88-21.40L14.88-21.40ZM14.56-3.12Q16.60-3.12 18.22-4.06Q19.84-5 20.78-6.70Q21.72-8.40 21.72-10.60L21.72-10.60Q21.72-12.80 20.78-14.50Q19.84-16.20 18.22-17.12Q16.60-18.04 14.56-18.04L14.56-18.04Q12.56-18.04 10.94-17.10Q9.32-16.16 8.38-14.48Q7.44-12.80 7.44-10.60L7.44-10.60Q7.44-8.40 8.36-6.70Q9.28-5 10.92-4.06Q12.56-3.12 14.56-3.12L14.56-3.12Z M36.60-17.64Q37.60-19.48 39.56-20.44Q41.52-21.40 44.32-21.40L44.32-21.40L44.32-17.68Q44-17.72 43.44-17.72L43.44-17.72Q40.32-17.72 38.54-15.86Q36.76-14 36.76-10.56L36.76-10.56L36.76 0L32.92 0L32.92-21.20L36.60-21.20L36.60-17.64Z M70-10.48Q70-10.04 69.92-9.32L69.92-9.32L52.72-9.32Q53.08-6.52 55.18-4.82Q57.28-3.12 60.40-3.12L60.40-3.12Q64.20-3.12 66.52-5.68L66.52-5.68L68.64-3.20Q67.20-1.52 65.06-0.64Q62.92 0.24 60.28 0.24L60.28 0.24Q56.92 0.24 54.32-1.14Q51.72-2.52 50.30-5Q48.88-7.48 48.88-10.60L48.88-10.60Q48.88-13.68 50.26-16.16Q51.64-18.64 54.06-20.02Q56.48-21.40 59.52-21.40L59.52-21.40Q62.56-21.40 64.94-20.02Q67.32-18.64 68.66-16.16Q70-13.68 70-10.48L70-10.48ZM59.52-18.16Q56.76-18.16 54.90-16.48Q53.04-14.80 52.72-12.08L52.72-12.08L66.32-12.08Q66-14.76 64.14-16.46Q62.28-18.16 59.52-18.16L59.52-18.16Z M93.48-29.68L97.32-29.68L97.32 0L93.64 0L93.64-3.36Q92.36-1.60 90.40-0.68Q88.44 0.24 86.08 0.24L86.08 0.24Q83 0.24 80.56-1.12Q78.12-2.48 76.74-4.94Q75.36-7.40 75.36-10.60L75.36-10.60Q75.36-13.80 76.74-16.24Q78.12-18.68 80.56-20.04Q83-21.40 86.08-21.40L86.08-21.40Q88.36-21.40 90.28-20.54Q92.20-19.68 93.48-18L93.48-18L93.48-29.68ZM86.40-3.12Q88.40-3.12 90.04-4.06Q91.68-5 92.60-6.70Q93.52-8.40 93.52-10.60L93.52-10.60Q93.52-12.80 92.60-14.50Q91.68-16.20 90.04-17.12Q88.40-18.04 86.40-18.04L86.40-18.04Q84.36-18.04 82.74-17.12Q81.12-16.20 80.18-14.50Q79.24-12.80 79.24-10.60L79.24-10.60Q79.24-8.40 80.18-6.70Q81.12-5 82.74-4.06Q84.36-3.12 86.40-3.12L86.40-3.12Z M106.60 0L106.60-21.20L110.44-21.20L110.44 0L106.60 0ZM108.52-25.28Q107.40-25.28 106.66-26Q105.92-26.72 105.92-27.76L105.92-27.76Q105.92-28.80 106.66-29.54Q107.40-30.28 108.52-30.28L108.52-30.28Q109.64-30.28 110.38-29.58Q111.12-28.88 111.12-27.84L111.12-27.84Q111.12-26.76 110.38-26.02Q109.64-25.28 108.52-25.28L108.52-25.28Z M129 0.24Q125.76 0.24 123.22-1.16Q120.68-2.56 119.24-5.02Q117.80-7.48 117.80-10.60L117.80-10.60Q117.80-13.72 119.24-16.18Q120.68-18.64 123.22-20.02Q125.76-21.40 129-21.40L129-21.40Q131.88-21.40 134.14-20.24Q136.40-19.08 137.64-16.88L137.64-16.88L134.72-15Q133.72-16.52 132.24-17.28Q130.76-18.04 128.96-18.04L128.96-18.04Q126.88-18.04 125.22-17.12Q123.56-16.20 122.62-14.50Q121.68-12.80 121.68-10.60L121.68-10.60Q121.68-8.36 122.62-6.66Q123.56-4.96 125.22-4.04Q126.88-3.12 128.96-3.12L128.96-3.12Q130.76-3.12 132.24-3.88Q133.72-4.64 134.72-6.16L134.72-6.16L137.64-4.32Q136.40-2.12 134.14-0.94Q131.88 0.24 129 0.24L129 0.24Z M155.60-4L156.80-1.24Q155.96-0.52 154.72-0.14Q153.48 0.24 152.16 0.24L152.16 0.24Q148.96 0.24 147.20-1.48Q145.44-3.20 145.44-6.40L145.44-6.40L145.44-18.04L141.84-18.04L141.84-21.20L145.44-21.20L145.44-25.84L149.28-25.84L149.28-21.20L155.36-21.20L155.36-18.04L149.28-18.04L149.28-6.56Q149.28-4.84 150.14-3.92Q151-3 152.60-3L152.60-3Q154.36-3 155.60-4L155.60-4Z M163.44 0L163.44-21.20L167.28-21.20L167.28 0L163.44 0ZM165.36-25.28Q164.24-25.28 163.50-26Q162.76-26.72 162.76-27.76L162.76-27.76Q162.76-28.80 163.50-29.54Q164.24-30.28 165.36-30.28L165.36-30.28Q166.48-30.28 167.22-29.58Q167.96-28.88 167.96-27.84L167.96-27.84Q167.96-26.76 167.22-26.02Q166.48-25.28 165.36-25.28L165.36-25.28Z M187.92-21.40Q191.96-21.40 194.34-19.06Q196.72-16.72 196.72-12.20L196.72-12.20L196.72 0L192.88 0L192.88-11.76Q192.88-14.84 191.40-16.40Q189.92-17.96 187.16-17.96L187.16-17.96Q184.04-17.96 182.24-16.14Q180.44-14.32 180.44-10.92L180.44-10.92L180.44 0L176.60 0L176.60-21.20L180.28-21.20L180.28-18Q181.44-19.64 183.42-20.52Q185.40-21.40 187.92-21.40L187.92-21.40Z M222.60-21.20L226.24-21.20L226.24-2.88Q226.24 2.68 223.48 5.34Q220.72 8 215.24 8L215.24 8Q212.24 8 209.52 7.18Q206.80 6.36 205.12 4.84L205.12 4.84L206.96 1.88Q208.44 3.16 210.62 3.90Q212.80 4.64 215.12 4.64L215.12 4.64Q218.84 4.64 220.62 2.88Q222.40 1.12 222.40-2.48L222.40-2.48L222.40-4.16Q221.04-2.52 219.06-1.70Q217.08-0.88 214.76-0.88L214.76-0.88Q211.72-0.88 209.26-2.18Q206.80-3.48 205.40-5.82Q204.00-8.16 204.00-11.16L204.00-11.16Q204.00-14.16 205.40-16.50Q206.80-18.84 209.26-20.12Q211.72-21.40 214.76-21.40L214.76-21.40Q217.16-21.40 219.22-20.52Q221.28-19.64 222.60-17.92L222.60-17.92L222.60-21.20ZM215.20-4.24Q217.28-4.24 218.94-5.12Q220.60-6 221.54-7.58Q222.48-9.16 222.48-11.16L222.48-11.16Q222.48-14.24 220.44-16.14Q218.40-18.04 215.20-18.04L215.20-18.04Q211.96-18.04 209.92-16.14Q207.88-14.24 207.88-11.16L207.88-11.16Q207.88-9.16 208.82-7.58Q209.76-6 211.42-5.12Q213.08-4.24 215.20-4.24L215.20-4.24Z M248.32 0L248.32-29.68L252.16-29.68L252.16 0L248.32 0Z M269.20-21.40Q273.60-21.40 275.94-19.24Q278.28-17.08 278.28-12.80L278.28-12.80L278.28 0L274.64 0L274.64-2.80Q273.68-1.32 271.90-0.54Q270.12 0.24 267.68 0.24L267.68 0.24Q264.12 0.24 261.98-1.48Q259.84-3.20 259.84-6L259.84-6Q259.84-8.80 261.88-10.50Q263.92-12.20 268.36-12.20L268.36-12.20L274.44-12.20L274.44-12.96Q274.44-15.44 273.00-16.76Q271.56-18.08 268.76-18.08L268.76-18.08Q266.88-18.08 265.08-17.46Q263.28-16.84 262.04-15.80L262.04-15.80L260.44-18.68Q262.08-20 264.36-20.70Q266.64-21.40 269.20-21.40L269.20-21.40ZM268.32-2.72Q270.52-2.72 272.12-3.70Q273.72-4.68 274.44-6.48L274.44-6.48L274.44-9.44L268.52-9.44Q263.64-9.44 263.64-6.16L263.64-6.16Q263.64-4.56 264.88-3.64Q266.12-2.72 268.32-2.72L268.32-2.72Z M298.64-21.40Q301.72-21.40 304.16-20.04Q306.60-18.68 307.98-16.24Q309.36-13.80 309.36-10.60L309.36-10.60Q309.36-7.40 307.98-4.94Q306.60-2.48 304.16-1.12Q301.72 0.24 298.64 0.24L298.64 0.24Q296.36 0.24 294.46-0.64Q292.56-1.52 291.24-3.20L291.24-3.20L291.24 7.76L287.40 7.76L287.40-21.20L291.08-21.20L291.08-17.84Q292.36-19.60 294.32-20.50Q296.28-21.40 298.64-21.40L298.64-21.40ZM298.32-3.12Q300.36-3.12 301.98-4.06Q303.60-5 304.54-6.70Q305.48-8.40 305.48-10.60L305.48-10.60Q305.48-12.80 304.54-14.50Q303.60-16.20 301.98-17.12Q300.36-18.04 298.32-18.04L298.32-18.04Q296.32-18.04 294.70-17.10Q293.08-16.16 292.14-14.48Q291.20-12.80 291.20-10.60L291.20-10.60Q291.20-8.40 292.12-6.70Q293.04-5 294.68-4.06Q296.32-3.12 298.32-3.12L298.32-3.12Z M327.40-4L328.60-1.24Q327.76-0.52 326.52-0.14Q325.28 0.24 323.96 0.24L323.96 0.24Q320.76 0.24 319.00-1.48Q317.24-3.20 317.24-6.40L317.24-6.40L317.24-18.04L313.64-18.04L313.64-21.20L317.24-21.20L317.24-25.84L321.08-25.84L321.08-21.20L327.16-21.20L327.16-18.04L321.08-18.04L321.08-6.56Q321.08-4.84 321.94-3.92Q322.80-3 324.40-3L324.40-3Q326.16-3 327.40-4L327.40-4Z M343.60 0.24Q340.44 0.24 337.92-1.16Q335.40-2.56 333.98-5.02Q332.56-7.48 332.56-10.60L332.56-10.60Q332.56-13.72 333.98-16.18Q335.40-18.64 337.92-20.02Q340.44-21.40 343.60-21.40L343.60-21.40Q346.76-21.40 349.26-20.02Q351.76-18.64 353.18-16.18Q354.60-13.72 354.60-10.60L354.60-10.60Q354.60-7.48 353.18-5.02Q351.76-2.56 349.26-1.16Q346.76 0.24 343.60 0.24L343.60 0.24ZM343.60-3.12Q345.64-3.12 347.26-4.06Q348.88-5 349.80-6.70Q350.72-8.40 350.72-10.60L350.72-10.60Q350.72-12.80 349.80-14.50Q348.88-16.20 347.26-17.12Q345.64-18.04 343.60-18.04L343.60-18.04Q341.56-18.04 339.94-17.12Q338.32-16.20 337.38-14.50Q336.44-12.80 336.44-10.60L336.44-10.60Q336.44-8.40 337.38-6.70Q338.32-5 339.94-4.06Q341.56-3.12 343.60-3.12L343.60-3.12Z M373.16-21.40Q376.24-21.40 378.68-20.04Q381.12-18.68 382.50-16.24Q383.88-13.80 383.88-10.60L383.88-10.60Q383.88-7.40 382.50-4.94Q381.12-2.48 378.68-1.12Q376.24 0.24 373.16 0.24L373.16 0.24Q370.88 0.24 368.98-0.64Q367.08-1.52 365.76-3.20L365.76-3.20L365.76 7.76L361.92 7.76L361.92-21.20L365.60-21.20L365.60-17.84Q366.88-19.60 368.84-20.50Q370.80-21.40 373.16-21.40L373.16-21.40ZM372.84-3.12Q374.88-3.12 376.50-4.06Q378.12-5 379.06-6.70Q380-8.40 380-10.60L380-10.60Q380-12.80 379.06-14.50Q378.12-16.20 376.50-17.12Q374.88-18.04 372.84-18.04L372.84-18.04Q370.84-18.04 369.22-17.10Q367.60-16.16 366.66-14.48Q365.72-12.80 365.72-10.60L365.72-10.60Q365.72-8.40 366.64-6.70Q367.56-5 369.20-4.06Q370.84-3.12 372.84-3.12L372.84-3.12Z M415.20-21.40Q418.28-21.40 420.72-20.04Q423.16-18.68 424.54-16.24Q425.92-13.80 425.92-10.60L425.92-10.60Q425.92-7.40 424.54-4.94Q423.16-2.48 420.72-1.12Q418.28 0.24 415.20 0.24L415.20 0.24Q412.92 0.24 411.02-0.64Q409.12-1.52 407.80-3.20L407.80-3.20L407.80 7.76L403.96 7.76L403.96-21.20L407.64-21.20L407.64-17.84Q408.92-19.60 410.88-20.50Q412.84-21.40 415.20-21.40L415.20-21.40ZM414.88-3.12Q416.92-3.12 418.54-4.06Q420.16-5 421.10-6.70Q422.04-8.40 422.04-10.60L422.04-10.60Q422.04-12.80 421.10-14.50Q420.16-16.20 418.54-17.12Q416.92-18.04 414.88-18.04L414.88-18.04Q412.88-18.04 411.26-17.10Q409.64-16.16 408.70-14.48Q407.76-12.80 407.76-10.60L407.76-10.60Q407.76-8.40 408.68-6.70Q409.60-5 411.24-4.06Q412.88-3.12 414.88-3.12L414.88-3.12Z M436.92-17.64Q437.92-19.48 439.88-20.44Q441.84-21.40 444.64-21.40L444.64-21.40L444.64-17.68Q444.32-17.72 443.76-17.72L443.76-17.72Q440.64-17.72 438.86-15.86Q437.08-14 437.08-10.56L437.08-10.56L437.08 0L433.24 0L433.24-21.20L436.92-21.20L436.92-17.64Z M451.36 0L451.36-21.20L455.20-21.20L455.20 0L451.36 0ZM453.28-25.28Q452.16-25.28 451.42-26Q450.68-26.72 450.68-27.76L450.68-27.76Q450.68-28.80 451.42-29.54Q452.16-30.28 453.28-30.28L453.28-30.28Q454.40-30.28 455.14-29.58Q455.88-28.88 455.88-27.84L455.88-27.84Q455.88-26.76 455.14-26.02Q454.40-25.28 453.28-25.28L453.28-25.28Z M473.76 0.24Q470.52 0.24 467.98-1.16Q465.44-2.56 464.00-5.02Q462.56-7.48 462.56-10.60L462.56-10.60Q462.56-13.72 464.00-16.18Q465.44-18.64 467.98-20.02Q470.52-21.40 473.76-21.40L473.76-21.40Q476.64-21.40 478.90-20.24Q481.16-19.08 482.40-16.88L482.40-16.88L479.48-15Q478.48-16.52 477.00-17.28Q475.52-18.04 473.72-18.04L473.72-18.04Q471.64-18.04 469.98-17.12Q468.32-16.20 467.38-14.50Q466.44-12.80 466.44-10.60L466.44-10.60Q466.44-8.36 467.38-6.66Q468.32-4.96 469.98-4.04Q471.64-3.12 473.72-3.12L473.72-3.12Q475.52-3.12 477.00-3.88Q478.48-4.64 479.48-6.16L479.48-6.16L482.40-4.32Q481.16-2.12 478.90-0.94Q476.64 0.24 473.76 0.24L473.76 0.24Z M508.20-10.48Q508.20-10.04 508.12-9.32L508.12-9.32L490.92-9.32Q491.28-6.52 493.38-4.82Q495.48-3.12 498.60-3.12L498.60-3.12Q502.40-3.12 504.72-5.68L504.72-5.68L506.84-3.20Q505.40-1.52 503.26-0.64Q501.12 0.24 498.48 0.24L498.48 0.24Q495.12 0.24 492.52-1.14Q489.92-2.52 488.50-5Q487.08-7.48 487.08-10.60L487.08-10.60Q487.08-13.68 488.46-16.16Q489.84-18.64 492.26-20.02Q494.68-21.40 497.72-21.40L497.72-21.40Q500.76-21.40 503.14-20.02Q505.52-18.64 506.86-16.16Q508.20-13.68 508.20-10.48L508.20-10.48ZM497.72-18.16Q494.96-18.16 493.10-16.48Q491.24-14.80 490.92-12.08L490.92-12.08L504.52-12.08Q504.20-14.76 502.34-16.46Q500.48-18.16 497.72-18.16L497.72-18.16Z M521.60 0.24Q519 0.24 516.60-0.46Q514.20-1.16 512.84-2.24L512.84-2.24L514.44-5.28Q515.84-4.28 517.84-3.68Q519.84-3.08 521.88-3.08L521.88-3.08Q526.92-3.08 526.92-5.96L526.92-5.96Q526.92-6.92 526.24-7.48Q525.56-8.04 524.54-8.30Q523.52-8.56 521.64-8.88L521.64-8.88Q519.08-9.28 517.46-9.80Q515.84-10.32 514.68-11.56Q513.52-12.80 513.52-15.04L513.52-15.04Q513.52-17.92 515.92-19.66Q518.32-21.40 522.36-21.40L522.36-21.40Q524.48-21.40 526.60-20.88Q528.72-20.36 530.08-19.48L530.08-19.48L528.44-16.44Q525.84-18.12 522.32-18.12L522.32-18.12Q519.88-18.12 518.60-17.32Q517.32-16.52 517.32-15.20L517.32-15.20Q517.32-14.16 518.04-13.56Q518.76-12.96 519.82-12.68Q520.88-12.40 522.80-12.04L522.80-12.04Q525.36-11.60 526.94-11.10Q528.52-10.60 529.64-9.40Q530.76-8.20 530.76-6.04L530.76-6.04Q530.76-3.16 528.30-1.46Q525.84 0.24 521.60 0.24L521.60 0.24Z M558.04-21.40Q562.44-21.40 564.78-19.24Q567.12-17.08 567.12-12.80L567.12-12.80L567.12 0L563.48 0L563.48-2.80Q562.52-1.32 560.74-0.54Q558.96 0.24 556.52 0.24L556.52 0.24Q552.96 0.24 550.82-1.48Q548.68-3.20 548.68-6L548.68-6Q548.68-8.80 550.72-10.50Q552.76-12.20 557.20-12.20L557.20-12.20L563.28-12.20L563.28-12.96Q563.28-15.44 561.84-16.76Q560.40-18.08 557.60-18.08L557.60-18.08Q555.72-18.08 553.92-17.46Q552.12-16.84 550.88-15.80L550.88-15.80L549.28-18.68Q550.92-20 553.20-20.70Q555.48-21.40 558.04-21.40L558.04-21.40ZM557.16-2.72Q559.36-2.72 560.96-3.70Q562.56-4.68 563.28-6.48L563.28-6.48L563.28-9.44L557.36-9.44Q552.48-9.44 552.48-6.16L552.48-6.16Q552.48-4.56 553.72-3.64Q554.96-2.72 557.16-2.72L557.16-2.72Z M585.60 0.24Q582.36 0.24 579.82-1.16Q577.28-2.56 575.84-5.02Q574.40-7.48 574.40-10.60L574.40-10.60Q574.40-13.72 575.84-16.18Q577.28-18.64 579.82-20.02Q582.36-21.40 585.60-21.40L585.60-21.40Q588.48-21.40 590.74-20.24Q593-19.08 594.24-16.88L594.24-16.88L591.32-15Q590.32-16.52 588.84-17.28Q587.36-18.04 585.56-18.04L585.56-18.04Q583.48-18.04 581.82-17.12Q580.16-16.20 579.22-14.50Q578.28-12.80 578.28-10.60L578.28-10.60Q578.28-8.36 579.22-6.66Q580.16-4.96 581.82-4.04Q583.48-3.12 585.56-3.12L585.56-3.12Q587.36-3.12 588.84-3.88Q590.32-4.64 591.32-6.16L591.32-6.16L594.24-4.32Q593-2.12 590.74-0.94Q588.48 0.24 585.60 0.24L585.60 0.24Z M610.12 0.24Q606.88 0.24 604.34-1.16Q601.80-2.56 600.36-5.02Q598.92-7.48 598.92-10.60L598.92-10.60Q598.92-13.72 600.36-16.18Q601.80-18.64 604.34-20.02Q606.88-21.40 610.12-21.40L610.12-21.40Q613-21.40 615.26-20.24Q617.52-19.08 618.76-16.88L618.76-16.88L615.84-15Q614.84-16.52 613.36-17.28Q611.88-18.04 610.08-18.04L610.08-18.04Q608-18.04 606.34-17.12Q604.68-16.20 603.74-14.50Q602.80-12.80 602.80-10.60L602.80-10.60Q602.80-8.36 603.74-6.66Q604.68-4.96 606.34-4.04Q608-3.12 610.08-3.12L610.08-3.12Q611.88-3.12 613.36-3.88Q614.84-4.64 615.84-6.16L615.84-6.16L618.76-4.32Q617.52-2.12 615.26-0.94Q613 0.24 610.12 0.24L610.12 0.24Z M641.64-21.20L645.48-21.20L645.48 0L641.84 0L641.84-3.20Q640.68-1.56 638.78-0.66Q636.88 0.24 634.64 0.24L634.64 0.24Q630.40 0.24 627.96-2.10Q625.52-4.44 625.52-9L625.52-9L625.52-21.20L629.36-21.20L629.36-9.44Q629.36-6.36 630.84-4.78Q632.32-3.20 635.08-3.20L635.08-3.20Q638.12-3.20 639.88-5.04Q641.64-6.88 641.64-10.24L641.64-10.24L641.64-21.20Z M658.48-17.64Q659.48-19.48 661.44-20.44Q663.40-21.40 666.20-21.40L666.20-21.40L666.20-17.68Q665.88-17.72 665.32-17.72L665.32-17.72Q662.20-17.72 660.42-15.86Q658.64-14 658.64-10.56L658.64-10.56L658.64 0L654.80 0L654.80-21.20L658.48-21.20L658.48-17.64Z M680.60-21.40Q685-21.40 687.34-19.24Q689.68-17.08 689.68-12.80L689.68-12.80L689.68 0L686.04 0L686.04-2.80Q685.08-1.32 683.30-0.54Q681.52 0.24 679.08 0.24L679.08 0.24Q675.52 0.24 673.38-1.48Q671.24-3.20 671.24-6L671.24-6Q671.24-8.80 673.28-10.50Q675.32-12.20 679.76-12.20L679.76-12.20L685.84-12.20L685.84-12.96Q685.84-15.44 684.40-16.76Q682.96-18.08 680.16-18.08L680.16-18.08Q678.28-18.08 676.48-17.46Q674.68-16.84 673.44-15.80L673.44-15.80L671.84-18.68Q673.48-20 675.76-20.70Q678.04-21.40 680.60-21.40L680.60-21.40ZM679.72-2.72Q681.92-2.72 683.52-3.70Q685.12-4.68 685.84-6.48L685.84-6.48L685.84-9.44L679.92-9.44Q675.04-9.44 675.04-6.16L675.04-6.16Q675.04-4.56 676.28-3.64Q677.52-2.72 679.72-2.72L679.72-2.72Z M709.52-4L710.72-1.24Q709.88-0.52 708.64-0.14Q707.40 0.24 706.08 0.24L706.08 0.24Q702.88 0.24 701.12-1.48Q699.36-3.20 699.36-6.40L699.36-6.40L699.36-18.04L695.76-18.04L695.76-21.20L699.36-21.20L699.36-25.84L703.20-25.84L703.20-21.20L709.28-21.20L709.28-18.04L703.20-18.04L703.20-6.56Q703.20-4.84 704.06-3.92Q704.92-3 706.52-3L706.52-3Q708.28-3 709.52-4L709.52-4Z M735.80-10.48Q735.80-10.04 735.72-9.32L735.72-9.32L718.52-9.32Q718.88-6.52 720.98-4.82Q723.08-3.12 726.20-3.12L726.20-3.12Q730.00-3.12 732.32-5.68L732.32-5.68L734.44-3.20Q733.00-1.52 730.86-0.64Q728.72 0.24 726.08 0.24L726.08 0.24Q722.72 0.24 720.12-1.14Q717.52-2.52 716.10-5Q714.68-7.48 714.68-10.60L714.68-10.60Q714.68-13.68 716.06-16.16Q717.44-18.64 719.86-20.02Q722.28-21.40 725.32-21.40L725.32-21.40Q728.36-21.40 730.74-20.02Q733.12-18.64 734.46-16.16Q735.80-13.68 735.80-10.48L735.80-10.48ZM725.32-18.16Q722.56-18.16 720.70-16.48Q718.84-14.80 718.52-12.08L718.52-12.08L732.12-12.08Q731.80-14.76 729.94-16.46Q728.08-18.16 725.32-18.16L725.32-18.16Z M743.12 0L743.12-29.68L746.96-29.68L746.96 0L743.12 0Z M771.28-21.20L775.04-21.20L764.76 2.12Q763.40 5.36 761.58 6.68Q759.76 8 757.20 8L757.20 8Q755.64 8 754.18 7.50Q752.72 7 751.76 6.04L751.76 6.04L753.40 3.16Q755.04 4.72 757.20 4.72L757.20 4.72Q758.60 4.72 759.54 3.98Q760.48 3.24 761.24 1.44L761.24 1.44L761.92-0.04L752.56-21.20L756.56-21.20L763.96-4.24L771.28-21.20Z"/></g>
</svg>
</g><g opacity="1" transform="rotate(0 395.851 400.5394)">
<svg width="396.4939" height="70" x="395.851" y="400.5394" version="1.1" preserveAspectRatio="none" viewBox="2.88 -29.68 213.88000000000002 37.760000000000005">
  <g transform="matrix(1 0 0 1 0 0)" class="companyName"><path id="id-D6z1nYkh8" d="M2.88 0L2.88-29.68L9.12-29.68L9.12 0L2.88 0Z M27.68-21.84Q32.68-21.84 35.36-19.46Q38.04-17.08 38.04-12.28L38.04-12.28L38.04 0L32.20 0L32.20-2.68Q30.44 0.32 25.64 0.32L25.64 0.32Q23.16 0.32 21.34-0.52Q19.52-1.36 18.56-2.84Q17.60-4.32 17.60-6.20L17.60-6.20Q17.60-9.20 19.86-10.92Q22.12-12.64 26.84-12.64L26.84-12.64L31.80-12.64Q31.80-14.68 30.56-15.78Q29.32-16.88 26.84-16.88L26.84-16.88Q25.12-16.88 23.46-16.34Q21.80-15.80 20.64-14.88L20.64-14.88L18.40-19.24Q20.16-20.48 22.62-21.16Q25.08-21.84 27.68-21.84L27.68-21.84ZM27.20-3.88Q28.80-3.88 30.04-4.62Q31.28-5.36 31.80-6.80L31.80-6.80L31.80-9L27.52-9Q23.68-9 23.68-6.48L23.68-6.48Q23.68-5.28 24.62-4.58Q25.56-3.88 27.20-3.88L27.20-3.88Z M60.48-21.84Q63.48-21.84 65.94-20.46Q68.40-19.08 69.80-16.58Q71.20-14.08 71.20-10.76L71.20-10.76Q71.20-7.44 69.80-4.94Q68.40-2.44 65.94-1.06Q63.48 0.32 60.48 0.32L60.48 0.32Q56.36 0.32 54-2.28L54-2.28L54 7.76L47.76 7.76L47.76-21.52L53.72-21.52L53.72-19.04Q56.04-21.84 60.48-21.84L60.48-21.84ZM59.40-4.80Q61.80-4.80 63.34-6.42Q64.88-8.04 64.88-10.76L64.88-10.76Q64.88-13.48 63.34-15.10Q61.80-16.72 59.40-16.72L59.40-16.72Q57-16.72 55.46-15.10Q53.92-13.48 53.92-10.76L53.92-10.76Q53.92-8.04 55.46-6.42Q57-4.80 59.40-4.80L59.40-4.80Z M92.16-21.84Q95.16-21.84 97.62-20.46Q100.08-19.08 101.48-16.58Q102.88-14.08 102.88-10.76L102.88-10.76Q102.88-7.44 101.48-4.94Q100.08-2.44 97.62-1.06Q95.16 0.32 92.16 0.32L92.16 0.32Q88.04 0.32 85.68-2.28L85.68-2.28L85.68 7.76L79.44 7.76L79.44-21.52L85.40-21.52L85.40-19.04Q87.72-21.84 92.16-21.84L92.16-21.84ZM91.08-4.80Q93.48-4.80 95.02-6.42Q96.56-8.04 96.56-10.76L96.56-10.76Q96.56-13.48 95.02-15.10Q93.48-16.72 91.08-16.72L91.08-16.72Q88.68-16.72 87.14-15.10Q85.60-13.48 85.60-10.76L85.60-10.76Q85.60-8.04 87.14-6.42Q88.68-4.80 91.08-4.80L91.08-4.80Z M125.88-21.52L131.88-21.52L122.16 1.32Q120.68 5.04 118.50 6.56Q116.32 8.08 113.24 8.08L113.24 8.08Q111.56 8.08 109.92 7.56Q108.28 7.04 107.24 6.12L107.24 6.12L109.52 1.68Q110.24 2.32 111.18 2.68Q112.12 3.04 113.04 3.04L113.04 3.04Q114.32 3.04 115.12 2.42Q115.92 1.80 116.56 0.36L116.56 0.36L116.64 0.16L107.32-21.52L113.76-21.52L119.80-6.92L125.88-21.52Z M144.08 0L144.08-22.72L135.12-22.72L135.12-28L159.52-28L159.52-22.72L150.56-22.72L150.56 0L144.08 0Z M174.24-21.84Q179.24-21.84 181.92-19.46Q184.60-17.08 184.60-12.28L184.60-12.28L184.60 0L178.76 0L178.76-2.68Q177 0.32 172.20 0.32L172.20 0.32Q169.72 0.32 167.90-0.52Q166.08-1.36 165.12-2.84Q164.16-4.32 164.16-6.20L164.16-6.20Q164.16-9.20 166.42-10.92Q168.68-12.64 173.40-12.64L173.40-12.64L178.36-12.64Q178.36-14.68 177.12-15.78Q175.88-16.88 173.40-16.88L173.40-16.88Q171.68-16.88 170.02-16.34Q168.36-15.80 167.20-14.88L167.20-14.88L164.96-19.24Q166.72-20.48 169.18-21.16Q171.64-21.84 174.24-21.84L174.24-21.84ZM173.76-3.88Q175.36-3.88 176.60-4.62Q177.84-5.36 178.36-6.80L178.36-6.80L178.36-9L174.08-9Q170.24-9 170.24-6.48L170.24-6.48Q170.24-5.28 171.18-4.58Q172.12-3.88 173.76-3.88L173.76-3.88Z M210.84-21.52L216.76-21.52L216.76-3.60Q216.76 2.32 213.68 5.20Q210.60 8.08 204.68 8.08L204.68 8.08Q201.56 8.08 198.76 7.32Q195.96 6.56 194.12 5.12L194.12 5.12L196.60 0.64Q197.96 1.76 200.04 2.42Q202.12 3.08 204.20 3.08L204.20 3.08Q207.44 3.08 208.98 1.62Q210.52 0.16 210.52-2.80L210.52-2.80L210.52-3.72Q208.08-1.04 203.72-1.04L203.72-1.04Q200.76-1.04 198.30-2.34Q195.84-3.64 194.40-6Q192.96-8.36 192.96-11.44L192.96-11.44Q192.96-14.52 194.40-16.88Q195.84-19.24 198.30-20.54Q200.76-21.84 203.72-21.84L203.72-21.84Q208.40-21.84 210.84-18.76L210.84-18.76L210.84-21.52ZM204.96-6.16Q207.44-6.16 209.02-7.62Q210.60-9.08 210.60-11.44L210.60-11.44Q210.60-13.80 209.02-15.26Q207.44-16.72 204.96-16.72L204.96-16.72Q202.48-16.72 200.88-15.26Q199.28-13.80 199.28-11.44L199.28-11.44Q199.28-9.08 200.88-7.62Q202.48-6.16 204.96-6.16L204.96-6.16Z"/></g>
</svg>
</g><g opacity="1" transform="rotate(0 514.7992 181.8382)">
<svg width="158.5975" height="178.7012" x="514.7992" y="181.8382" version="1.1" preserveAspectRatio="none" viewBox="29.000139236450195 20.0010929107666 141.9996795654297 159.99940490722656">
  <g transform="matrix(1 0 0 1 0 0)"><g><path d="m54.467 123.527-.002-.05a.278.278 0 0 1-.031-.095c-.385-.774-1.1-1.316-1.921-1.713-1.328-.599-3.284-1.1-5.706-1.38-.947 2.228-1.891 4.457-2.833 6.686 6.339-.233 10.493-1.891 10.493-3.448z" data-color="1" class="icon1"></path><path d="m43.557 149.43-.032-2.421c-.161.007-.321.01-.482.01h-.238a12.916 12.916 0 0 1-.482-.01l-.031 2.37-.008.591-.042 3.187c.454.021.909.034 1.363.046l-.042-3.18a58.322 58.322 0 0 0-.006-.593z" data-color="1" class="icon1"></path><path d="M54.162 139.535c.169-.33.326-.668.472-1.012a18.446 18.446 0 0 0 1.033-3.305c.782-3.63 1.012-7.811-.849-11.15-.364.887-1.626 1.69-3.643 2.301-2.017.61-4.605.981-7.395 1.071l-1.406 3.333c.187.138.371.281.553.424 1.385-1.094 2.938-2.156 4.678-1.324.899.43 1.263 1.363 1.943 2.027.945.921 1.772-.058 2.588-.6.806-.535 1.763-.509 2.451.218.796.84.778 2.135.665 3.209a11.201 11.201 0 0 1-1.404 4.327 12.368 12.368 0 0 1-1.423 2.016c-1.34 1.539-3.07 2.709-4.948 3.499a14.234 14.234 0 0 1-8.135.37 15.138 15.138 0 0 1-2.442-1.088l-.37.891.08.047a12.89 12.89 0 0 0 5.352 1.626.318.318 0 0 1 .213.016c.25.015.501.021.752.021s.501-.006.752-.021a.327.327 0 0 1 .214-.016 12.89 12.89 0 0 0 5.352-1.626c2.215-1.252 3.816-3.098 4.917-5.254z" data-color="1" class="icon1"></path><path d="M170.986 153.961c-.115-2.066-.448-4.138-.685-6.193a1939.756 1939.756 0 0 0-6.635-51.394l.095-2.838.02-.592a29811.142 29811.142 0 0 1 .335-10.024 2300446.36 2300446.36 0 0 1 1.098-32.845l.022-.675.357-10.662.515-15.4a.431.431 0 0 0 .051-.207 5.874 5.874 0 0 0-.025-.575l.003-.091a.424.424 0 0 0-.04-.202c-.142-.902-.549-1.756-1.417-2.105a.408.408 0 0 0-.322-.14 2914.143 2914.143 0 0 0-48.267.235l-1.221.017a2911.549 2911.549 0 0 0-51.815 1.166c-.012-.001-.025.001-.038.001l-3.001.097a59.278 59.278 0 0 0-.73-.02c-1.017-.019-2.157-.04-3.122.328a2.105 2.105 0 0 0-.474.251 1.37 1.37 0 0 0-.46.485c-.189.303-.283.671-.286 1.092-.003.335.008.672.025 1.01l-.008.208c.011.201.032.398.058.591.046.609.102 1.217.139 1.82.002.039.01.074.019.108.544 7.604 1.047 15.211 1.497 22.821a1855.986 1855.986 0 0 1 1.613 31.935l.024.575c.131 3.161.255 6.323.371 9.484l.016.441-.066.151a3360.242 3360.242 0 0 0-9.375 21.726l-1.315 3.085-.129.128L36 145.968c-.389 1.015-.767 2.073-.74 3.124.005.198.025.396.061.594.038.206.093.411.172.615.255.663.728 1.188 1.301 1.618.703.422 1.497.708 2.315.88.593.125 1.197.199 1.804.257l.106.101 3.163.057v.003c.405.01.809.02 1.21.036l7.081.277a6856418.987 6856418.987 0 0 1 56.645 2.214l11.572.452 1.299.051 2.524.099a55830.004 55830.004 0 0 0 20.531.802l3.167.124 17.552.686 2.735.107a3.904 3.904 0 0 0 1.248-.48c.155-.092.307-.192.455-.304.456-.594.677-1.308.759-2.06.021-.195.034-.392.038-.59a8.8 8.8 0 0 0-.012-.67zM109.569 24.068a.9.9 0 0 1-.614.254h-.116a.9.9 0 0 1-.614-.254c-.171-.157-.245-.389-.255-.614a.881.881 0 0 1 .255-.614.9.9 0 0 1 .614-.254h.116c.235 0 .444.098.614.254.171.157.244.389.255.614a.89.89 0 0 1-.255.614z" data-color="1" class="icon1"></path><path d="M70.24 90.431c-.008.006-.014.014-.021.021.007-.007.013-.015.021-.021z" data-color="2" class="icon2"></path><path d="m150.393 95.792.003-.023c-.001.008-.001.016-.003.023z" data-color="2" class="icon2"></path><path d="M60.633 40.753c.33 5.158.633 10.318.913 15.479l.032.575c.456 8.446.846 16.896 1.171 25.348l.022.576.08 2.104a.52.52 0 0 1 .014.088c.004.049.048.471.051.594.085-.012.183 0 .271.007l7.749.025.909.003 12.235.039 19.952.064.664.002 6.076.02.576.002 8.498.027.575.002 30.123.097.575.002 7.345.024.038-1.076.002-.016.059-1.33.026-.575a3570.584 3570.584 0 0 0 1.032-24.807l.022-.575c.138-3.606.268-7.211.396-10.817l.024-.668c.197-5.605.383-11.211.556-16.817-.004-.031-.006-.064-.004-.099.042-.685.054-1.369.039-2.055l-20.927.052-4.399.086-6.202.121-1.148.022-17.501.342-.575.011-13.073.256-37.017.724.001.009a1527.47 1527.47 0 0 1 .82 12.134z" data-color="2" class="icon2"></path><path d="m169.867 154.583-2.013-.082-47.568-1.941-1.759-.072-57.402-2.342-20.368-.851.008.592c14.1.575 31.576 1.308 45.676 1.883l34.124 1.392 23.278.95 24.384.995 1.604.065 1.13.046c.021-.195.034-.392.038-.59-.378-.014-.755-.03-1.132-.045z"></path><path d="m41.71 149.946.008-.591-5.219-.213-1.239-.051c.005.198.025.396.061.594l1.335.054c1.685.07 3.369.139 5.054.207z"></path><path d="m69.726 92.757-.288 1.461c0 .067.003.132.015.188.119.549.758.526 1.237.569l.283.025a2983.42 2983.42 0 0 0 79.515 1.591.31.31 0 0 0 .083-.01.245.245 0 0 0 .068-.029c.107-.021.204-.093.23-.207l.071-.308a.324.324 0 0 0 .024-.083c.1-.743.17-1.487.209-2.233l11.033-.162 1.556-.023.02-.592-.888.013-11.696.172c.016-.543.016-1.087-.003-1.632a.38.38 0 0 0-.018-.093c-.002-.012-.003-.024-.007-.036l-.01-.03c-.044-.137-.185-.24-.331-.213a.284.284 0 0 0-.105-.018 1643.25 1643.25 0 0 1-62.441-.321 1662.39 1662.39 0 0 1-17.581-.52l-.024.002h-.001a.421.421 0 0 0-.291.035l-.016.008-.007.003-.015.012a.396.396 0 0 0-.107.105c-.008.006-.014.014-.021.021l-.011.013-.015.022a.196.196 0 0 0-.013.025l-.009.019a.284.284 0 0 0-.016.054l-.312 1.581a312.375 312.375 0 0 0-9.872.03l-1.288.025.016.441-.066.151c.431-.01.862-.018 1.293-.026 3.265-.06 6.532-.071 9.799-.03zm.976-1.9a1642.612 1642.612 0 0 0 62.433.991c5.824-.018 11.648-.069 17.471-.149.004.171.007.342.009.514v.104c.001.136.001.272-.001.408-.002.159-.006.318-.01.477l-.001.035c-.027.846-.094 1.69-.207 2.531l-.003.023c-.004.011-.009.021-.012.032l-.04.175a3174.25 3174.25 0 0 1-15.734-.147l-.281-.004a3196.243 3196.243 0 0 1-15.454-.226 2978.315 2978.315 0 0 1-48.865-1.244l.695-3.52z"></path><path d="M105.227 129.937c-.744-.18-1.562-.167-2.322-.229a254.538 254.538 0 0 0-26.882-.774.997.997 0 0 0-.054.007c-.958.136-1.846.454-2.404 1.275a70.059 70.059 0 0 0-3.217 11.304c-.178.913-.395 1.846-.463 2.775-.064.871.158 1.621 1.069 1.879.825.233 1.739.163 2.587.18l3.189.062 12.754.246 6.259.121c2.035.039 4.116.211 6.148.1.98-.054 1.51-.492 1.784-1.432.267-.916.473-1.854.702-2.781.127-.754.253-1.509.383-2.263l.883-5.116.441-2.558c.103-.595.303-1.272.144-1.876-.13-.497-.516-.803-1.001-.92z"></path><path d="m59.511 118.688-4.467-.228-.856 3.219 4.505.188.818-3.179z"></path><path d="m59.741 121.787 4.508.105.759-3.193-4.471-.147-.796 3.235z"></path><path d="m65.63 122.053 4.508.105.759-3.193-4.471-.146-.796 3.234z"></path><path d="m71.431 122.26 4.508.105.759-3.193-4.471-.146-.796 3.234z"></path><path d="m72.554 114.612-4.47-.146-.797 3.235 4.509.105.758-3.194z"></path><path d="m72.881 117.997 4.508.105.759-3.194-4.471-.146-.796 3.235z"></path><path d="m78.741 117.997 4.508.105.759-3.194-4.471-.146-.796 3.235z"></path><path d="m84.482 117.997 4.508.105.759-3.194-4.471-.146-.796 3.235z"></path><path d="m90.431 118.144 4.508.105.759-3.193-4.471-.146-.796 3.234z"></path><path d="m96.142 118.355 4.509.105.759-3.194-4.471-.146-.797 3.235z"></path><path d="m102.887 115.12-.796 3.235 4.508.105.759-3.194-4.471-.146z"></path><path d="m107.951 118.532 4.508.105.759-3.193-4.471-.147-.796 3.235z"></path><path d="m107.24 122.95 4.509.105.759-3.194-4.471-.146-.797 3.235z"></path><path d="m66.467 114.624-10.111-.158-.869 2.681 10.181.375.799-2.898z"></path><path d="m64.958 110.542-7.063-.098-1.046 2.76 7.043.316 1.066-2.978z"></path><path d="m64.109 106.737-4.814-.158-.888 2.642 5.071.217.631-2.701z"></path><path d="m64.958 102.735-4.321-.197-.848 2.76 4.419.177.75-2.74z"></path><path d="m113.75 118.637 4.696.127.375-3.154h-4.558l-.513 3.027z"></path><path d="m113.395 122.975 4.696.127.375-3.155h-4.558l-.513 3.028z"></path><path d="m119.669 118.764 5.544.119.197-3.057h-5.406l-.335 2.938z"></path><path d="m119.353 123.22 5.544.118.198-3.056h-5.406l-.336 2.938z"></path><path d="m125.944 123.536 5.544.118.197-3.056h-5.406l-.335 2.938z"></path><path d="m133.182 123.536 5.544.118.197-3.056h-5.406l-.335 2.938z"></path><path d="m126.501 118.883 5.371.073v-3.016h-5.268l-.103 2.943z"></path><path d="m138.812 116.043-5.445-.103-.074 2.943 5.519.073v-2.913z"></path><path d="M143.585 116.339h-3.421l-.124 3.076 3.49-.083.055-2.993z"></path><path d="m140.04 115.403 3.555-.084.056-3.049h-3.485l-.126 3.133z"></path><path d="m140.04 111.094 3.345-.078.053-2.869h-3.279l-.119 2.947z"></path><path d="M143.036 104.006h-3.12l-.112 2.805 3.182-.075.05-2.73z"></path><path d="m145.343 116.31-.124 3.075 3.49-.082.055-2.993h-3.421z"></path><path d="m145.219 115.373 3.555-.084.056-3.049h-3.485l-.126 3.133z"></path><path d="m145.219 111.065 3.345-.079.053-2.869h-3.279l-.119 2.948z"></path><path d="M148.215 103.977h-3.12l-.112 2.805 3.182-.076.05-2.729z"></path><path d="M153.633 116.31h-3.422l-.123 3.075 3.49-.082.055-2.993z"></path><path d="m150.62 123.94 3.491-.083.055-2.993h-3.422l-.124 3.076z"></path><path d="m150.088 115.373 3.554-.084.056-3.049h-3.484l-.126 3.133z"></path><path d="m150.088 111.065 3.344-.079.053-2.869h-3.279l-.118 2.948z"></path><path d="M153.084 103.977h-3.12l-.113 2.805 3.182-.076.051-2.729z"></path><path d="M158.152 104.332h-3.684l-.133 2.691 3.758-.072.059-2.619z"></path><path d="M155.726 124.265h3.877l-.208-7.926h-4.084l.415 7.926z"></path><path d="M155.097 115.215h3.529l-.189-7.068h-3.718l.378 7.068z"></path><path d="m70.423 102.892-4.459-.118-.69 2.484 4.419.119.73-2.485z"></path><path d="m75.75 103.011-4.321-.119-.749 2.386 4.419.099.651-2.366z"></path><path d="m81.57 103.109-4.32-.118-.75 2.386 4.419.098.651-2.366z"></path><path d="m86.917 103.188-4.321-.118-.749 2.386 4.419.098.651-2.366z"></path><path d="m92.343 103.306-4.321-.118-.75 2.386 4.42.098.651-2.366z"></path><path d="m97.789 103.405-4.321-.118-.75 2.385 4.419.099.652-2.366z"></path><path d="m103.293 103.405-4.321-.118-.749 2.385 4.419.099.651-2.366z"></path><path d="m108.887 103.612-4.321-.118-.75 2.385 4.42.099.651-2.366z"></path><path d="m114.303 103.612-4.321-.118-.75 2.385 4.419.099.652-2.366z"></path><path d="m119.867 103.76-4.321-.118-.75 2.385 4.42.099.651-2.366z"></path><path d="m125.579 103.76-4.321-.118-.75 2.385 4.419.099.652-2.366z"></path><path d="m131.35 103.937-4.321-.118-.75 2.386 4.419.098.652-2.366z"></path><path d="m70.334 107.033-4.459-.118-.69 2.484 4.419.118.73-2.484z"></path><path d="m75.661 107.151-4.321-.118-.749 2.386 4.419.098.651-2.366z"></path><path d="m81.482 107.25-4.321-.119-.75 2.386 4.419.099.652-2.366z"></path><path d="m86.828 107.329-4.32-.119-.75 2.386 4.419.099.651-2.366z"></path><path d="m92.254 107.447-4.321-.118-.749 2.385 4.419.099.651-2.366z"></path><path d="m97.7 107.545-4.321-.118-.75 2.386 4.419.098.652-2.366z"></path><path d="m103.204 107.545-4.321-.118-.749 2.386 4.419.098.651-2.366z"></path><path d="m108.798 107.753-4.321-.119-.75 2.386 4.42.099.651-2.366z"></path><path d="m114.214 107.753-4.321-.119-.75 2.386 4.419.099.652-2.366z"></path><path d="m119.778 107.9-4.321-.118-.75 2.386 4.42.098.651-2.366z"></path><path d="m125.49 107.9-4.321-.118-.75 2.386 4.42.098.651-2.366z"></path><path d="m131.261 108.078-4.321-.118-.75 2.385 4.419.099.652-2.366z"></path><path d="m70.887 110.809-4.458-.119-.691 2.485 4.419.118.73-2.484z"></path><path d="m71.144 113.194 4.419.099.652-2.366-4.321-.118-.75 2.385z"></path><path d="m76.964 113.293 4.42.098.651-2.366-4.321-.118-.75 2.386z"></path><path d="m82.311 113.372 4.42.098.651-2.366-4.321-.118-.75 2.386z"></path><path d="m87.959 113.687 4.42.099.651-2.366-4.321-.118-.75 2.385z"></path><path d="m93.607 113.687 4.42.099.651-2.366-4.321-.118-.75 2.385z"></path><path d="m104.28 111.528-4.321-.118-.749 2.386 4.419.098.651-2.366z"></path><path d="m109.351 111.528-4.321-.118-.75 2.386 4.42.098.651-2.366z"></path><path d="m115.753 111.854-4.321-.119-.749 2.386 4.419.099.651-2.366z"></path><path d="m121.515 112.061-4.321-.119-.75 2.386 4.42.099.651-2.366z"></path><path d="m127.434 112.208-4.321-.118-.75 2.386 4.42.098.651-2.366z"></path><path d="M138.442 104.006h-6.096l-.148 2.297h6.244v-2.297z"></path><path d="m132.494 111.41-3.522.138-.247 3.372 9.895.295.192-7.433-6.052.178-.266 3.45z"></path><path d="m77.329 122.52 28.37.818.563-3.623-27.868-.566-1.065 3.371z"></path><path d="m139.922 123.654 8.908.138.207-3.194h-8.849l-.266 3.056z"></path><path d="M108.838 24.322h.116a.896.896 0 0 0 .614-.254.886.886 0 0 0 .255-.614c-.01-.225-.084-.457-.255-.614a.903.903 0 0 0-.614-.254h-.116a.896.896 0 0 0-.614.254.886.886 0 0 0-.255.614c.01.225.084.458.255.614.17.156.379.254.614.254z"></path><path d="m43.557 149.43-1.264-.052-.008.591 1.28.052-.008-.591z"></path><path d="M38.246 129.873c-.899.43-1.263 1.363-1.943 2.027-.944.921-1.772-.058-2.587-.6-.806-.535-1.763-.509-2.451.218-.369.389-.561.877-.652 1.394-.06.344-.076.701-.066 1.053.007.26.027.517.053.763.246 2.352 1.279 4.566 2.827 6.344.98 1.126 2.17 2.054 3.472 2.781.78.435 1.601.798 2.442 1.088 2.69.672 5.528.542 8.135-.37 1.878-.791 3.608-1.96 4.948-3.499.264-.304.512-.621.745-.948.245-.344.471-.701.678-1.068a11.201 11.201 0 0 0 1.404-4.327c.112-1.075.13-2.369-.665-3.209-.688-.727-1.645-.753-2.451-.218-.816.542-1.643 1.521-2.587.6-.68-.664-1.044-1.596-1.943-2.027-1.741-.833-3.294.23-4.679 1.324a21.247 21.247 0 0 0-.553-.424c-1.243-.918-2.614-1.626-4.127-.902z" data-color="3" class="icon3"></path><path d="m44.133 149.454-.032-2.482a13.397 13.397 0 0 0 4.118-1.037c3.832-1.646 6.368-4.915 7.563-8.854.754-2.485 1.228-5.343 1.018-8.081-.221-1.912-.689-3.799-1.605-5.433a12.52 12.52 0 0 0-.179-.289c-.55-1.229-1.78-1.946-3.014-2.418-1.583-.606-3.262-.961-4.948-1.151a28.633 28.633 0 0 0-1.046-.098 31.09 31.09 0 0 0-3.083-.066 30.788 30.788 0 0 0-3.083.066c-2.035.152-4.083.518-5.994 1.249-1.234.472-2.464 1.189-3.014 2.418a12.52 12.52 0 0 0-.179.289c-.916 1.634-1.384 3.521-1.605 5.433-.21 2.738.265 5.597 1.018 8.081 1.051 3.466 3.141 6.413 6.239 8.192.423.243.864.464 1.324.662 1.325.569 2.715.914 4.118 1.037l-.031 2.383-.008.591-.042 3.178-.103 7.879c-.027 2.094-.007 4.194-.102 6.286-.044.97-.139 1.939-.365 2.884a19.56 19.56 0 0 0-1.55.138c-1.878.196-3.605.627-5.006 1.262-.492.223-.93.466-1.312.724-.64.384-1.194.871-1.494 1.528a2.566 2.566 0 0 0-.339 1.252c0 1.34 1.117 2.584 3.144 3.504 1.685.764 3.842 1.233 6.169 1.353.735.059 1.476.077 2.214.06.738.018 1.479-.001 2.214-.06 2.326-.12 4.484-.589 6.169-1.353 2.028-.919 3.144-2.164 3.144-3.504 0-.43-.116-.85-.339-1.252-.3-.656-.854-1.144-1.494-1.528a8.935 8.935 0 0 0-1.312-.724c-1.4-.635-3.127-1.065-5.006-1.262a20.044 20.044 0 0 0-1.55-.138c-.226-.945-.321-1.915-.365-2.884-.095-2.092-.075-4.192-.102-6.286l-.102-7.787-.041-3.171-.007-.591zm-12.749-25.977a.278.278 0 0 0 .031-.095c.385-.774 1.1-1.316 1.921-1.713 1.632-.736 4.209-1.324 7.437-1.535a32.019 32.019 0 0 1 2.032-.016v.005l.119-.002.119.002v-.005a32.019 32.019 0 0 1 2.032.016c.6.039 1.178.092 1.731.155 2.423.279 4.378.78 5.706 1.379.821.397 1.536.939 1.921 1.713a.285.285 0 0 0 .031.095l.002.05c0 1.557-4.155 3.215-10.493 3.449-.344.013-.693.021-1.049.025-6.926-.079-11.543-1.833-11.543-3.474l.003-.049zm5.223 21.312-.08-.047c-3.548-2.041-5.501-5.608-6.345-9.525-.783-3.63-1.012-7.811.849-11.15.364.888 1.626 1.69 3.643 2.301 2.193.663 5.061 1.045 8.13 1.089v.004l.119-.002.119.002v-.004c.246-.004.491-.01.735-.018 2.79-.09 5.379-.461 7.395-1.071 2.018-.61 3.279-1.413 3.643-2.301 1.861 3.34 1.632 7.521.849 11.15a18.446 18.446 0 0 1-1.033 3.305c-.146.344-.303.681-.472 1.012-1.101 2.155-2.702 4.001-4.92 5.254a12.894 12.894 0 0 1-5.352 1.626.321.321 0 0 0-.214.016c-.25.015-.501.021-.752.021s-.502-.006-.752-.021a.334.334 0 0 0-.214-.016 12.879 12.879 0 0 1-5.348-1.625zm12.578 26.721c1.251.38 2.667.849 3.696 1.688 1.263 1.03 1.015 2.648-.125 3.677-.989.893-2.381 1.375-3.637 1.75-1.966.587-4.025.813-6.076.765v-.006l-.119.003-.119-.003v.006c-2.051.048-4.109-.178-6.076-.765-1.256-.375-2.647-.857-3.637-1.75-1.14-1.029-1.388-2.647-.125-3.677 1.029-.839 2.444-1.308 3.696-1.688a18.323 18.323 0 0 1 4.276-.751c-.224.733-.515 1.453-.587 2.221-.007.07-.009.141-.01.212l.031.001a.298.298 0 0 0 .269.251c1.532.145 3.067.184 4.604.119.269-.011.342-.319.219-.48l.037-.001-.007-.103c-.072-.768-.362-1.488-.587-2.221 1.453.084 2.885.329 4.277.752zm-4.891-.858c.143.502.309.996.452 1.503.073.26.136.549.168.844a33.867 33.867 0 0 1-3.966-.104 5.37 5.37 0 0 1 .155-.74c.143-.507.308-1.002.452-1.503.044-.153.085-.307.123-.461.049-.197.093-.396.128-.598.308-1.773.27-3.588.293-5.381l.076-5.844.068-5.211.042-3.187.008-.591.031-2.37c.161.007.321.01.482.01h.238c.161-.001.321-.003.482-.01l.032 2.421.008.592.042 3.18.068 5.166.076 5.844c.023 1.792-.015 3.608.293 5.381.035.202.079.401.128.598.036.154.078.308.121.461z" data-color="2" class="icon2"></path><path d="M34.218 130.119a.85.85 0 0 0 .773.38.944.944 0 0 0 .71-1.436c-.35-.574-1.198-.621-1.577-.055a.834.834 0 0 0 .005.934.684.684 0 0 0 .089.177z" data-color="3" class="icon3"></path></g></g>
</svg>
</g></svg></svg>